<mxfile host="app.diagrams.net" agent="Mozilla/5.0 (X11; Linux x86_64) AppleWebKit/537.36 (KHTML, like Gecko) Chrome/130.0.0.0 Safari/537.36" version="24.7.17">
  <diagram name="Page-1" id="0pbR37fy-8RCgxXV9L8N">
    <mxGraphModel dx="1434" dy="1926" grid="1" gridSize="10" guides="1" tooltips="1" connect="1" arrows="1" fold="1" page="1" pageScale="1" pageWidth="850" pageHeight="1100" math="0" shadow="0">
      <root>
        <mxCell id="0" />
        <mxCell id="1" parent="0" />
        <mxCell id="WMZIigE4Ksuk-LYmvngB-7" value="" style="whiteSpace=wrap;html=1;fillColor=#fefefe;strokeColor=#b85450;fontColor=#ececec;labelBackgroundColor=#ececec;gradientColor=none;" vertex="1" parent="1">
          <mxGeometry x="519" y="246" width="45" height="80" as="geometry" />
        </mxCell>
        <mxCell id="6AcQH9RrlWRlE2u4x-1C-1" value="" style="ellipse;shape=cloud;whiteSpace=wrap;html=1;" parent="1" vertex="1">
          <mxGeometry x="232.135" y="-20" width="240.73" height="200" as="geometry" />
        </mxCell>
        <mxCell id="6AcQH9RrlWRlE2u4x-1C-3" value="" style="image;points=[];aspect=fixed;html=1;align=center;shadow=0;dashed=0;image=img/lib/allied_telesis/computer_and_terminals/Personal_Computer.svg;" parent="1" vertex="1">
          <mxGeometry x="130" y="240" width="68.54" height="92.89" as="geometry" />
        </mxCell>
        <mxCell id="6AcQH9RrlWRlE2u4x-1C-4" value="" style="shape=actor;whiteSpace=wrap;html=1;" parent="1" vertex="1">
          <mxGeometry x="180" y="292.89" width="40" height="50" as="geometry" />
        </mxCell>
        <mxCell id="6AcQH9RrlWRlE2u4x-1C-5" value="" style="endArrow=classic;startArrow=classic;html=1;rounded=0;entryX=-0.017;entryY=0.804;entryDx=0;entryDy=0;entryPerimeter=0;" parent="1" source="6AcQH9RrlWRlE2u4x-1C-3" target="WMZIigE4Ksuk-LYmvngB-8" edge="1">
          <mxGeometry width="50" height="50" relative="1" as="geometry">
            <mxPoint x="199" y="243" as="sourcePoint" />
            <mxPoint x="300" y="110" as="targetPoint" />
          </mxGeometry>
        </mxCell>
        <mxCell id="6AcQH9RrlWRlE2u4x-1C-6" value="" style="image;points=[];aspect=fixed;html=1;align=center;shadow=0;dashed=0;image=img/lib/allied_telesis/computer_and_terminals/Tablet_Alternative.svg;" parent="1" vertex="1">
          <mxGeometry x="318" y="240" width="69" height="94" as="geometry" />
        </mxCell>
        <mxCell id="6AcQH9RrlWRlE2u4x-1C-7" value="" style="shape=actor;whiteSpace=wrap;html=1;" parent="1" vertex="1">
          <mxGeometry x="380" y="292.89" width="40" height="50" as="geometry" />
        </mxCell>
        <mxCell id="6AcQH9RrlWRlE2u4x-1C-10" value="" style="endArrow=classic;startArrow=classic;html=1;rounded=0;entryX=0.648;entryY=1.02;entryDx=0;entryDy=0;entryPerimeter=0;exitX=0.642;exitY=0.022;exitDx=0;exitDy=0;exitPerimeter=0;startSize=6;strokeWidth=1;jumpSize=6;targetPerimeterSpacing=0;sourcePerimeterSpacing=6;strokeColor=default;spacing=2;labelPosition=left;verticalLabelPosition=middle;align=right;verticalAlign=middle;" parent="1" source="6AcQH9RrlWRlE2u4x-1C-6" target="WMZIigE4Ksuk-LYmvngB-8" edge="1">
          <mxGeometry width="50" height="50" relative="1" as="geometry">
            <mxPoint x="239" y="216.35999999999967" as="sourcePoint" />
            <mxPoint x="384" y="264.3599999999997" as="targetPoint" />
          </mxGeometry>
        </mxCell>
        <mxCell id="6AcQH9RrlWRlE2u4x-1C-11" value="" style="endArrow=classic;startArrow=classic;html=1;rounded=0;" parent="1" edge="1">
          <mxGeometry width="50" height="50" relative="1" as="geometry">
            <mxPoint x="530" y="230" as="sourcePoint" />
            <mxPoint x="390" y="130" as="targetPoint" />
          </mxGeometry>
        </mxCell>
        <mxCell id="WMZIigE4Ksuk-LYmvngB-5" value="" style="verticalLabelPosition=bottom;verticalAlign=top;html=1;shadow=0;dashed=0;strokeWidth=1;shape=mxgraph.android.phone2;strokeColor=#9a9a9f;fillColor=#bbbcbe;aspect=fixed;" vertex="1" parent="1">
          <mxGeometry x="518" y="240" width="47.63" height="92.89" as="geometry" />
        </mxCell>
        <mxCell id="6AcQH9RrlWRlE2u4x-1C-9" value="" style="shape=actor;whiteSpace=wrap;html=1;" parent="1" vertex="1">
          <mxGeometry x="553" y="292.89" width="40" height="50" as="geometry" />
        </mxCell>
        <mxCell id="WMZIigE4Ksuk-LYmvngB-8" value="Cloud Application&lt;div&gt;Instance&lt;/div&gt;" style="image;points=[];aspect=fixed;html=1;align=center;shadow=0;dashed=0;image=img/lib/allied_telesis/storage/Datacenter_Server_Half_Rack_ToR.svg;labelPosition=center;verticalLabelPosition=top;verticalAlign=bottom;" vertex="1" parent="1">
          <mxGeometry x="319.945" y="60" width="65.11" height="84.6" as="geometry" />
        </mxCell>
      </root>
    </mxGraphModel>
  </diagram>
</mxfile>
